<svg width="16" height="16" viewBox="0 0 16 16" fill="none" xmlns="http://www.w3.org/2000/svg">
<path d="M3.73398 11.1997C4.23398 10.8108 4.62565 10.3386 4.90898 9.78301C5.19232 9.22745 5.33398 8.63301 5.33398 7.99967C5.33398 7.36634 5.19232 6.7719 4.90898 6.21634C4.62565 5.66079 4.23398 5.18856 3.73398 4.79967C3.38954 5.26634 3.12565 5.7719 2.94232 6.31634C2.75898 6.86079 2.66732 7.4219 2.66732 7.99967C2.66732 8.57745 2.75898 9.13856 2.94232 9.68301C3.12565 10.2275 3.38954 10.733 3.73398 11.1997ZM9.77565 13.0413C10.3479 12.8469 10.8673 12.5552 11.334 12.1663C10.7007 11.6552 10.209 11.0358 9.85898 10.308C9.50898 9.58023 9.33398 8.81079 9.33398 7.99967C9.33398 7.18856 9.50898 6.41912 9.85898 5.69134C10.209 4.96356 10.7007 4.34412 11.334 3.83301C10.8673 3.44412 10.3479 3.15245 9.77565 2.95801C9.20343 2.76356 8.61176 2.66634 8.00065 2.66634C7.38954 2.66634 6.79787 2.76356 6.22565 2.95801C5.65343 3.15245 5.13398 3.44412 4.66732 3.83301C5.30065 4.34412 5.79232 4.96356 6.14232 5.69134C6.49232 6.41912 6.66732 7.18856 6.66732 7.99967C6.66732 8.81079 6.49232 9.58023 6.14232 10.308C5.79232 11.0358 5.30065 11.6552 4.66732 12.1663C5.13398 12.5552 5.65343 12.8469 6.22565 13.0413C6.79787 13.2358 7.38954 13.333 8.00065 13.333C8.61176 13.333 9.20343 13.2358 9.77565 13.0413ZM12.2673 11.1997C12.6118 10.733 12.8757 10.2275 13.059 9.68301C13.2423 9.13856 13.334 8.57745 13.334 7.99967C13.334 7.4219 13.2423 6.86079 13.059 6.31634C12.8757 5.7719 12.6118 5.26634 12.2673 4.79967C11.7673 5.18856 11.3757 5.66079 11.0923 6.21634C10.809 6.7719 10.6673 7.36634 10.6673 7.99967C10.6673 8.63301 10.809 9.22745 11.0923 9.78301C11.3757 10.3386 11.7673 10.8108 12.2673 11.1997ZM5.40065 14.1413C4.58954 13.7913 3.88398 13.3163 3.28398 12.7163C2.68398 12.1163 2.20898 11.4108 1.85898 10.5997C1.50898 9.78856 1.33398 8.9219 1.33398 7.99967C1.33398 7.07745 1.50898 6.21079 1.85898 5.39967C2.20898 4.58856 2.68398 3.88301 3.28398 3.28301C3.88398 2.68301 4.58954 2.20801 5.40065 1.85801C6.21176 1.50801 7.07843 1.33301 8.00065 1.33301C8.92287 1.33301 9.78954 1.50801 10.6007 1.85801C11.4118 2.20801 12.1173 2.68301 12.7173 3.28301C13.3173 3.88301 13.7923 4.58856 14.1423 5.39967C14.4923 6.21079 14.6673 7.07745 14.6673 7.99967C14.6673 8.9219 14.4923 9.78856 14.1423 10.5997C13.7923 11.4108 13.3173 12.1163 12.7173 12.7163C12.1173 13.3163 11.4118 13.7913 10.6007 14.1413C9.78954 14.4913 8.92287 14.6663 8.00065 14.6663C7.07843 14.6663 6.21176 14.4913 5.40065 14.1413Z" fill="#9B9B9B"/>
</svg>
